<?xml version="1.0" encoding="utf-8"?>
<!-- Generator: Adobe Illustrator 27.5.0, SVG Export Plug-In . SVG Version: 6.00 Build 0)  -->
<svg version="1.1" id="Layer_1" xmlns="http://www.w3.org/2000/svg" xmlns:xlink="http://www.w3.org/1999/xlink" x="0px" y="0px"
	 viewBox="0 0 275 275" style="enable-background:new 0 0 275 275;" xml:space="preserve">
<style type="text/css">
	.st0{fill-rule:evenodd;clip-rule:evenodd;fill:#00AAE1;}
	.st1{fill-rule:evenodd;clip-rule:evenodd;fill:#232F3E;}
</style>
<g>
	<path id="path8-8" class="st0" d="M247.6,59.6c-3.9,0-7.3-0.4-10.2-1.1c0.4,4.6,1.8,7.9,4.2,9.9c2.4,2,6,3,10.8,3
		c1.9,0,3.8-0.1,5.6-0.4c1.8-0.2,4.3-0.8,7.6-1.6c0.2-0.1,0.4-0.1,0.6-0.2c0.2,0,0.4-0.1,0.5-0.1c1.2,0,1.8,0.8,1.8,2.4v4.8
		c0,1.1-0.2,1.9-0.5,2.3c-0.3,0.4-0.9,0.8-1.8,1.2c-5,1.9-10.4,2.9-16,2.9c-8.5,0-15.1-2.3-19.6-7c-4.6-4.7-6.9-11.4-6.9-20.2
		c0-9,2.3-16,7-21.1c4.7-5.1,11.2-7.7,19.5-7.7c6.4,0,11.4,1.6,15,4.7c3.6,3.1,5.4,7.3,5.4,12.4c0,5.2-1.9,9.1-5.8,11.8
		C260.9,58.3,255.1,59.6,247.6,59.6L247.6,59.6z M249,37.2c-6.6,0-10.4,4.1-11.4,12.2c2.7,0.6,5.8,0.8,9.2,0.8c3.5,0,6-0.5,7.6-1.6
		c1.6-1.1,2.4-2.7,2.4-4.9C256.7,39.4,254.2,37.2,249,37.2L249,37.2z M148.4,33.4c3.6-2.4,6.9-4.1,9.8-5.1c2.9-1,6-1.5,9-1.5
		c6.2,0,10.5,2.2,13.1,6.6c3.5-2.4,6.8-4,9.9-5.1c3.1-1,6.3-1.6,9.6-1.6c4.8,0,8.5,1.4,11.2,4c2.6,2.7,4,6.5,4,11.3v36.6
		c0,0.9-0.2,1.6-0.6,2c-0.4,0.4-1.1,0.6-2,0.6h-9.9c-0.9,0-1.5-0.2-2-0.6c-0.4-0.4-0.6-1.1-0.6-2V45.4c0-4.7-2.1-7-6.3-7
		c-3.7,0-7.5,0.9-11.2,2.7v37.6c0,0.9-0.2,1.6-0.6,2c-0.4,0.4-1.1,0.6-2,0.6h-9.9c-0.9,0-1.5-0.2-2-0.6c-0.4-0.4-0.6-1.1-0.6-2V45.4
		c0-4.7-2.1-7-6.3-7c-3.9,0-7.6,0.9-11.4,2.8v37.5c0,0.9-0.2,1.6-0.6,2c-0.4,0.4-1.1,0.6-2,0.6h-9.9c-0.9,0-1.5-0.2-2-0.6
		c-0.4-0.4-0.6-1.1-0.6-2V30.9c0-1,0.2-1.6,0.6-2c0.4-0.4,1.1-0.6,2-0.6h7.4c1.6,0,2.5,0.8,2.9,2.3L148.4,33.4z M106.8,30.9
		c0-1,0.2-1.6,0.6-2c0.4-0.4,1.1-0.6,2-0.6h9.9c1,0,1.6,0.2,2,0.6c0.4,0.4,0.6,1,0.6,2v47.8c0,0.9-0.2,1.6-0.6,2
		c-0.4,0.4-1,0.6-2,0.6h-9.9c-0.9,0-1.5-0.2-2-0.6c-0.4-0.4-0.6-1.1-0.6-2V30.9z M114.3,20.1c-2.6,0-4.7-0.7-6.3-2.2
		c-1.6-1.5-2.4-3.4-2.4-5.9c0-2.5,0.8-4.5,2.4-5.9c1.6-1.5,3.7-2.2,6.3-2.2c2.6,0,4.7,0.7,6.3,2.2c1.6,1.4,2.4,3.4,2.4,5.9
		c0,2.5-0.8,4.5-2.4,5.9C119,19.4,117,20.1,114.3,20.1z M79.8,36.2c2.7-3,5.3-5.2,7.8-6.5c2.4-1.3,5.1-1.9,7.8-1.9h1.4
		c1,0,1.7,0.2,2.1,0.6c0.4,0.4,0.6,1.1,0.6,2v8.7c0,0.9-0.2,1.6-0.6,2c-0.4,0.4-1,0.6-2,0.6c-0.5,0-1.1,0-1.9-0.1
		c-1-0.1-1.9-0.1-2.9-0.1c-1.6,0-3.5,0.2-5.8,0.7c-2.3,0.5-4.2,1-5.8,1.7v34.8c0,0.9-0.2,1.6-0.6,2c-0.4,0.4-1.1,0.6-2,0.6h-9.9
		c-0.9,0-1.5-0.2-2-0.6c-0.4-0.4-0.6-1.1-0.6-2V30.9c0-1,0.2-1.6,0.6-2c0.4-0.4,1.1-0.6,2-0.6h7.4c1.6,0,2.5,0.8,2.9,2.3L79.8,36.2z
		 M3.8,30.9c0-1,0.2-1.6,0.6-2c0.4-0.4,1.1-0.6,2-0.6h7.4c1.6,0,2.5,0.8,2.9,2.3l0.7,2.7c2.1-2,4.6-3.6,7.5-4.8
		c2.9-1.2,5.9-1.8,8.9-1.8c6.7,0,11.9,2.5,15.8,7.4c3.9,4.9,5.8,11.5,5.8,19.9c0,5.7-1,10.7-2.9,15c-1.9,4.3-4.5,7.6-7.8,9.9
		c-3.3,2.3-7.1,3.5-11.3,3.5c-2.8,0-5.5-0.4-8-1.3c-2.5-0.9-4.7-2.1-6.5-3.7V100c0,1-0.2,1.6-0.6,2c-0.4,0.4-1.1,0.6-2,0.6H6.4
		c-0.9,0-1.5-0.2-2-0.6c-0.4-0.4-0.6-1.1-0.6-2L3.8,30.9z M29,38.1c-3.6,0-6.9,0.9-10.1,2.8v27.3c3,1.9,6.4,2.8,10.1,2.8
		c3.9,0,6.7-1.3,8.5-3.9c1.8-2.6,2.7-6.8,2.7-12.4c0-5.7-0.9-9.9-2.7-12.5C35.8,39.4,32.9,38.1,29,38.1z"/>
	<path id="path6-57" class="st1" d="M242.9,189.4c-8.6,0-15.3-2.6-20.1-7.8c-4.8-5.2-7.2-12.5-7.2-21.8c0-9.2,2.4-16.5,7.2-21.7
		c4.8-5.2,11.5-7.8,20.1-7.8c8.6,0,15.3,2.6,20.1,7.8c4.8,5.2,7.2,12.4,7.2,21.7c0,9.3-2.4,16.6-7.2,21.8
		C258.2,186.8,251.5,189.4,242.9,189.4z M242.9,177.2c7.6,0,11.4-5.8,11.4-17.3c0-11.5-3.8-17.2-11.4-17.2
		c-7.6,0-11.4,5.7-11.4,17.2C231.6,171.4,235.4,177.2,242.9,177.2z M183.3,164.8c-4,0-7.5-0.4-10.5-1.2c0.4,4.8,1.9,8.2,4.3,10.3
		c2.4,2.1,6.1,3.1,11.1,3.1c2,0,3.9-0.1,5.8-0.4c1.9-0.2,4.5-0.8,7.8-1.7c0.2-0.1,0.4-0.1,0.6-0.2c0.2,0,0.4-0.1,0.5-0.1
		c1.2,0,1.8,0.8,1.8,2.5v4.9c0,1.1-0.2,1.9-0.5,2.4c-0.3,0.5-0.9,0.9-1.9,1.2c-5.2,2-10.6,3-16.4,3c-8.7,0-15.5-2.4-20.2-7.3
		c-4.7-4.8-7-11.8-7-20.9c0-9.3,2.4-16.5,7.2-21.8c4.8-5.3,11.5-7.9,20-7.9c6.6,0,11.7,1.6,15.4,4.8c3.7,3.2,5.6,7.5,5.6,12.8
		c0,5.4-2,9.4-6,12.1C197,163.5,191.1,164.8,183.3,164.8L183.3,164.8z M184.8,141.7c-6.8,0-10.7,4.2-11.7,12.6
		c2.8,0.6,6,0.9,9.4,0.9c3.6,0,6.2-0.6,7.8-1.7c1.6-1.1,2.4-2.8,2.4-5.1C192.7,144,190.1,141.7,184.8,141.7z M116.5,189
		c-4.7,0-8.8-1.2-12.2-3.7c-3.5-2.4-6.1-5.8-7.9-10.1c-1.8-4.3-2.8-9.3-2.8-15c0-9,2.1-16.2,6.4-21.7c4.3-5.4,9.9-8.1,16.9-8.1
		c5.7,0,10.6,1.6,14.8,4.9v-25.5c0-1,0.2-1.7,0.6-2.1c0.4-0.4,1.1-0.6,2.1-0.6h10.4c1,0,1.7,0.2,2.1,0.6c0.4,0.4,0.6,1.1,0.6,2.1
		v75.3c0,0.9-0.2,1.6-0.6,2.1c-0.4,0.4-1.1,0.7-2.1,0.7h-8.6c-0.9,0-1.5-0.2-2-0.5c-0.5-0.4-0.8-1-1-1.9l-0.6-2.5
		C127.9,187,122.6,189,116.5,189L116.5,189z M121.7,177c3.5,0,6.8-1,9.9-3.1v-28.8c-3.1-1.8-6.7-2.7-10.7-2.7
		c-3.8,0-6.7,1.4-8.5,4.3c-1.9,2.9-2.8,7.2-2.8,13c0,5.8,1,10.1,3,13C114.5,175.6,117.6,177,121.7,177z M70.1,187.8
		c-0.9,0-1.6-0.2-2.1-0.7c-0.4-0.4-0.6-1.1-0.6-2.1v-50.3c0-1,0.2-1.7,0.6-2.1c0.4-0.4,1.1-0.6,2.1-0.6h10.4c1,0,1.7,0.2,2.1,0.6
		c0.4,0.4,0.6,1.1,0.6,2.1v50.3c0,0.9-0.2,1.6-0.6,2.1c-0.4,0.4-1.1,0.7-2.1,0.7H70.1z M75.3,123.4c-2.7,0-4.9-0.8-6.6-2.3
		c-1.7-1.5-2.5-3.6-2.5-6.2c0-2.6,0.8-4.7,2.5-6.2c1.7-1.5,3.9-2.3,6.6-2.3s4.9,0.8,6.6,2.3c1.7,1.5,2.5,3.6,2.5,6.2
		c0,2.6-0.8,4.7-2.5,6.2C80.3,122.7,78.1,123.4,75.3,123.4z M27.2,187.8c-0.7,0-1.3-0.1-1.8-0.3c-0.5-0.2-0.9-0.5-1.2-0.9
		c-0.3-0.4-0.6-1-0.9-1.7L4.9,136.4c-0.2-0.5-0.4-1-0.5-1.5c-0.1-0.4-0.2-0.8-0.2-1.2c0-1.1,0.7-1.6,2.2-1.6h10.8
		c1.2,0,2,0.2,2.5,0.7c0.5,0.4,1,1.2,1.2,2.2L32,173.5l11.4-38.6c0.3-1,0.7-1.7,1.2-2.2c0.5-0.4,1.4-0.7,2.5-0.7h10.5
		c1.4,0,2.2,0.5,2.2,1.6c0,0.4-0.1,0.8-0.2,1.2c-0.1,0.4-0.3,0.9-0.5,1.5L40.5,185c-0.3,0.7-0.6,1.3-0.9,1.7
		c-0.3,0.4-0.7,0.7-1.1,0.9c-0.4,0.2-1,0.3-1.8,0.3H27.2z"/>
	<path id="path2-5" class="st0" d="M4.8,214.9c0.2-1.1,1-1.9,2.3-1.9c0.6,0,1.2,0.2,1.9,0.6c37.5,23.5,83.9,37.7,131.8,37.7
		c32.3,0,67.8-7.2,100.5-22.2c4.9-2.2,9.1,3.5,4.2,7.4C216.3,259.6,174,272,137.6,272c-51,0-96.9-20.3-131.7-54.2
		c-0.7-0.7-1-1.4-1.1-2.1V214.9z"/>
	<path id="path4-0" class="st0" d="M221.4,218.6c8.6-6.5,20.1-8.7,29.6-8.7c8.9,0,16.1,1.9,17.6,3.9c3.2,4.2-0.8,33.7-16.5,47.7
		c-2.4,2.2-4.7,1-3.6-1.8c3.5-9.4,11.4-30.6,7.7-35.7c-3.7-5.1-24.6-2.4-34-1.2c-1.5,0.2-2.3-0.4-2.4-1.3V221
		C219.8,220.3,220.4,219.4,221.4,218.6L221.4,218.6z"/>
</g>
</svg>
